<svg version="1.1" id="Layer_1" xmlns="http://www.w3.org/2000/svg" xmlns:xlink="http://www.w3.org/1999/xlink" x="0px" y="0px"
	 width="100%" viewBox="0 0 1121 433" enable-background="new 0 0 1121 433" xml:space="preserve">
<path fill="#1D1D1E" opacity="1.000000" stroke="none" 
	d="
M721.000000,434.000000 
	C480.666656,434.000000 240.833328,434.000000 1.000000,434.000000 
	C1.000000,289.666656 1.000000,145.333328 1.000000,1.000000 
	C374.666656,1.000000 748.333313,1.000000 1122.000000,1.000000 
	C1122.000000,145.333328 1122.000000,289.666656 1122.000000,434.000000 
	C988.500000,434.000000 855.000000,434.000000 721.000000,434.000000 
M192.690384,342.195068 
	C215.793152,339.101807 237.206711,331.484039 256.221161,317.845001 
	C269.095062,308.610596 280.219269,297.576569 288.860809,284.208832 
	C288.407990,283.568298 288.210266,283.045654 287.832031,282.788727 
	C274.509460,273.739075 261.202667,264.664612 247.748001,255.815125 
	C246.976654,255.307800 244.391129,256.220367 243.638641,257.217957 
	C223.525177,283.882416 188.459473,296.211151 155.590988,286.637238 
	C124.088150,277.461121 99.632713,248.026749 97.682884,215.351624 
	C95.297729,175.381271 118.965691,141.643997 157.460495,131.077332 
	C185.033432,123.508659 209.808334,129.807480 231.373062,148.358749 
	C236.705811,152.946320 241.230820,158.472855 246.254150,163.699951 
	C260.671570,153.968643 275.025696,144.280075 289.588776,134.450439 
	C269.896301,106.155319 244.149185,87.460670 211.775299,79.416794 
	C172.378738,69.628029 135.325729,76.096466 101.657959,99.678253 
	C78.017296,116.236794 61.415764,137.982742 51.895638,165.202972 
	C34.187630,215.834259 49.196201,274.486481 90.406273,309.549805 
	C119.776909,334.539612 153.455872,345.470154 192.690384,342.195068 
M968.691956,120.182587 
	C950.192871,142.629410 931.693787,165.076233 913.194702,187.523056 
	C912.730469,187.290329 912.266174,187.057587 911.801880,186.824860 
	C911.801880,150.773834 911.801880,114.722809 911.801880,78.419922 
	C894.006470,78.419922 876.768860,78.419922 859.326782,78.419922 
	C859.326782,165.978775 859.326782,253.315872 859.326782,340.558441 
	C876.991760,340.558441 894.223816,340.558441 911.853333,340.558441 
	C911.853333,338.363647 911.853333,336.558533 911.853333,334.753387 
	C911.853577,313.588745 911.786011,292.423584 911.952026,271.260223 
	C911.969849,268.990448 912.776428,266.263123 914.186401,264.542206 
	C924.398987,252.077408 934.806824,239.770889 945.255981,227.502121 
	C961.194946,208.787628 977.250305,190.172379 993.195740,171.463425 
	C1017.243042,143.248322 1041.245605,114.995125 1065.242310,86.737068 
	C1067.383911,84.215279 1069.343628,81.539017 1071.991943,78.164467 
	C1049.151489,78.164467 1027.669556,78.114822 1006.189148,78.272430 
	C1004.703796,78.283325 1002.840637,79.508507 1001.810181,80.725372 
	C990.865967,93.649811 980.054871,106.686966 968.691956,120.182587 
M392.544281,205.499664 
	C392.544281,250.558624 392.544281,295.617584 392.544281,340.635010 
	C449.930176,340.635010 506.499451,340.635010 563.143738,340.635010 
	C563.143738,323.809509 563.143738,307.301666 563.143738,290.328918 
	C523.745117,290.328918 484.827972,290.328918 445.308472,290.328918 
	C445.308472,219.639633 445.308472,149.419678 445.308472,78.429047 
	C427.202209,84.105988 409.870667,89.540016 392.544403,94.972404 
	C392.544403,131.875702 392.544403,168.187668 392.544281,205.499664 
M675.037231,253.500000 
	C675.037231,282.563232 675.037231,311.626434 675.037231,340.657318 
	C693.111389,340.657318 710.213135,340.657318 727.594421,340.657318 
	C727.594421,253.294281 727.594421,166.227158 727.594421,78.904457 
	C726.366882,79.038025 725.352661,78.985474 724.445068,79.271454 
	C709.713623,83.913559 695.030457,88.713211 680.251526,93.197678 
	C676.292786,94.398895 674.910339,96.204140 674.925171,100.506027 
	C675.099609,151.170212 675.037231,201.835205 675.037231,253.500000 
M1067.796387,334.752502 
	C1054.327271,316.191803 1040.937866,297.571808 1027.258423,279.167358 
	C1025.968750,277.432281 1022.866150,276.210114 1020.585632,276.178711 
	C1002.940674,275.935608 985.290894,276.044464 967.642578,276.044312 
	C965.384338,276.044281 963.126160,276.044281 959.852966,276.044281 
	C961.434875,278.531281 962.389709,280.223602 963.523621,281.785889 
	C976.899841,300.214478 990.373413,318.573120 1003.622437,337.092529 
	C1005.603699,339.861877 1007.634216,341.031738 1010.989014,341.010925 
	C1029.635498,340.895020 1048.283203,340.962952 1066.930420,340.937927 
	C1068.295288,340.936096 1069.660034,340.697144 1071.793945,340.495941 
	C1070.298218,338.265045 1069.302368,336.779816 1067.796387,334.752502 
z"/>
<path fill="#EEEEEE" opacity="1.000000" stroke="none" 
	d="
M192.247894,342.248077 
	C153.455872,345.470154 119.776909,334.539612 90.406273,309.549805 
	C49.196201,274.486481 34.187630,215.834259 51.895638,165.202972 
	C61.415764,137.982742 78.017296,116.236794 101.657959,99.678253 
	C135.325729,76.096466 172.378738,69.628029 211.775299,79.416794 
	C244.149185,87.460670 269.896301,106.155319 289.588776,134.450439 
	C275.025696,144.280075 260.671570,153.968643 246.254150,163.699951 
	C241.230820,158.472855 236.705811,152.946320 231.373062,148.358749 
	C209.808334,129.807480 185.033432,123.508659 157.460495,131.077332 
	C118.965691,141.643997 95.297729,175.381271 97.682884,215.351624 
	C99.632713,248.026749 124.088150,277.461121 155.590988,286.637238 
	C188.459473,296.211151 223.525177,283.882416 243.638641,257.217957 
	C244.391129,256.220367 246.976654,255.307800 247.748001,255.815125 
	C261.202667,264.664612 274.509460,273.739075 287.832031,282.788727 
	C288.210266,283.045654 288.407990,283.568298 288.860809,284.208832 
	C280.219269,297.576569 269.095062,308.610596 256.221161,317.845001 
	C237.206711,331.484039 215.793152,339.101807 192.247894,342.248077 
z"/>
<path fill="#EEEEEE" opacity="1.000000" stroke="none" 
	d="
M968.949585,119.937851 
	C980.054871,106.686966 990.865967,93.649811 1001.810181,80.725372 
	C1002.840637,79.508507 1004.703796,78.283325 1006.189148,78.272430 
	C1027.669556,78.114822 1049.151489,78.164467 1071.991943,78.164467 
	C1069.343628,81.539017 1067.383911,84.215279 1065.242310,86.737068 
	C1041.245605,114.995125 1017.243042,143.248322 993.195740,171.463425 
	C977.250305,190.172379 961.194946,208.787628 945.255981,227.502121 
	C934.806824,239.770889 924.398987,252.077408 914.186401,264.542206 
	C912.776428,266.263123 911.969849,268.990448 911.952026,271.260223 
	C911.786011,292.423584 911.853577,313.588745 911.853333,334.753387 
	C911.853333,336.558533 911.853333,338.363647 911.853333,340.558441 
	C894.223816,340.558441 876.991760,340.558441 859.326782,340.558441 
	C859.326782,253.315872 859.326782,165.978775 859.326782,78.419922 
	C876.768860,78.419922 894.006470,78.419922 911.801880,78.419922 
	C911.801880,114.722809 911.801880,150.773834 911.801880,186.824860 
	C912.266174,187.057587 912.730469,187.290329 913.194702,187.523056 
	C931.693787,165.076233 950.192871,142.629410 968.949585,119.937851 
z"/>
<path fill="#EEEEEF" opacity="1.000000" stroke="none" 
	d="
M392.544342,204.999664 
	C392.544403,168.187668 392.544403,131.875702 392.544403,94.972404 
	C409.870667,89.540016 427.202209,84.105988 445.308472,78.429047 
	C445.308472,149.419678 445.308472,219.639633 445.308472,290.328918 
	C484.827972,290.328918 523.745117,290.328918 563.143738,290.328918 
	C563.143738,307.301666 563.143738,323.809509 563.143738,340.635010 
	C506.499451,340.635010 449.930176,340.635010 392.544281,340.635010 
	C392.544281,295.617584 392.544281,250.558624 392.544342,204.999664 
z"/>
<path fill="#EDEDED" opacity="1.000000" stroke="none" 
	d="
M675.037231,253.000000 
	C675.037231,201.835205 675.099609,151.170212 674.925171,100.506027 
	C674.910339,96.204140 676.292786,94.398895 680.251526,93.197678 
	C695.030457,88.713211 709.713623,83.913559 724.445068,79.271454 
	C725.352661,78.985474 726.366882,79.038025 727.594421,78.904457 
	C727.594421,166.227158 727.594421,253.294281 727.594421,340.657318 
	C710.213135,340.657318 693.111389,340.657318 675.037231,340.657318 
	C675.037231,311.626434 675.037231,282.563232 675.037231,253.000000 
z"/>
<path fill="#E6B342" opacity="1.000000" stroke="none" 
	d="
M1068.051514,335.023560 
	C1069.302368,336.779816 1070.298218,338.265045 1071.793945,340.495941 
	C1069.660034,340.697144 1068.295288,340.936096 1066.930420,340.937927 
	C1048.283203,340.962952 1029.635498,340.895020 1010.989014,341.010925 
	C1007.634216,341.031738 1005.603699,339.861877 1003.622437,337.092529 
	C990.373413,318.573120 976.899841,300.214478 963.523621,281.785889 
	C962.389709,280.223602 961.434875,278.531281 959.852966,276.044281 
	C963.126160,276.044281 965.384338,276.044281 967.642578,276.044312 
	C985.290894,276.044464 1002.940674,275.935608 1020.585632,276.178711 
	C1022.866150,276.210114 1025.968750,277.432281 1027.258423,279.167358 
	C1040.937866,297.571808 1054.327271,316.191803 1068.051514,335.023560 
z"/>
</svg>